<svg width="24" height="18" viewBox="0 0 24 18" fill="none" xmlns="http://www.w3.org/2000/svg">
<path d="M23.0625 10.3182C23.5803 10.3182 24 9.8985 24 9.38072V3.9375C24 1.86975 22.3177 0.1875 20.25 0.1875H3.75C1.68225 0.1875 0 1.86975 0 3.9375V14.0625C0 16.1302 1.68225 17.8125 3.75 17.8125H20.25C22.3177 17.8125 24 16.1302 24 14.0625C24 13.5447 23.5803 13.125 23.0625 13.125C22.5447 13.125 22.125 13.5447 22.125 14.0625C22.125 15.0964 21.2839 15.9375 20.25 15.9375H3.75C2.71613 15.9375 1.875 15.0964 1.875 14.0625V7.03697H22.125V9.38072C22.125 9.8985 22.5447 10.3182 23.0625 10.3182ZM1.875 5.16197V3.9375C1.875 2.90363 2.71613 2.0625 3.75 2.0625H20.25C21.2839 2.0625 22.125 2.90363 22.125 3.9375V5.16197H1.875Z" fill="#7D8894"/>
</svg>
