<svg width="24" height="24" viewBox="0 0 512 512" fill="none" xmlns="http://www.w3.org/2000/svg">
<path d="M432 0H80C35.888 0 0 35.888 0 80V120C0 131.046 8.954 140 20 140C31.046 140 40 131.046 40 120V80C40 57.944 57.944 40 80 40H432C454.056 40 472 57.944 472 80V432C472 454.056 454.056 472 432 472H80C57.944 472 40 454.056 40 432V392C40 380.954 31.046 372 20 372C8.954 372 0 380.954 0 392V432C0 476.112 35.888 512 80 512H432C476.112 512 512 476.112 512 432V80C512 35.888 476.112 0 432 0Z" fill="black"/>
<path d="M335.919 213.567L261.135 138.851C253.321 131.044 240.658 131.05 232.851 138.864C225.044 146.678 225.05 159.341 232.864 167.148L307.642 241.857C315.44 249.655 315.44 262.343 307.642 270.141C307.613 270.17 307.584 270.2 307.555 270.229L232.771 345.945C225.009 353.804 225.087 366.467 232.946 374.229C236.843 378.079 241.922 380 246.999 380C252.159 380 257.317 378.015 261.229 374.054L335.975 298.377C359.321 274.979 359.304 236.952 335.919 213.567Z" fill="black"/>
<path d="M233 236H20C8.954 236 0 244.954 0 256C0 267.046 8.954 276 20 276H233C244.046 276 253 267.046 253 256C253 244.954 244.046 236 233 236Z" fill="black"/>
</svg>
