<svg width="18" height="18" viewBox="0 0 512 512" fill="none" xmlns="http://www.w3.org/2000/svg">
<path d="M426 340C399.417 340 375.613 352.124 359.826 371.131L292.907 337.848C283.018 332.932 271.012 336.958 266.094 346.849C261.175 356.739 265.205 368.744 275.095 373.662L342.117 406.995C340.731 413.112 340 419.472 340 426C340 473.421 378.58 512 426 512C473.42 512 512 473.421 512 426C512 378.579 473.42 340 426 340ZM426 472C400.636 472 380 451.364 380 426C380 419.71 381.269 413.712 383.565 408.246C384.056 407.518 384.506 406.75 384.908 405.942C385.335 405.084 385.694 404.209 385.989 403.324C393.906 389.407 408.875 380 426 380C451.364 380 472 400.636 472 426C472 451.364 451.364 472 426 472Z" fill="black"/>
<path d="M426 0C378.58 0 340 38.579 340 86C340 92.627 340.754 99.081 342.179 105.281L151.84 200.731C136.052 181.954 112.396 170 86 170C38.58 170 0 208.579 0 256C0 303.421 38.58 342 86 342C112.282 342 135.848 330.149 151.635 311.512L183.928 327.947C186.834 329.426 189.931 330.127 192.983 330.127C200.269 330.127 207.293 326.132 210.824 319.194C215.834 309.349 211.916 297.308 202.071 292.298L169.694 275.821C171.202 269.456 172 262.819 172 256C172 249.291 171.228 242.759 169.767 236.489L360.008 141.088C375.796 159.97 399.52 172 426 172C473.42 172 512 133.421 512 86C512 38.579 473.42 0 426 0ZM86 302C60.636 302 40 281.364 40 256C40 230.636 60.636 210 86 210C111.364 210 132 230.636 132 256C132 281.364 111.364 302 86 302ZM426 132C400.636 132 380 111.364 380 86C380 60.636 400.636 40 426 40C451.364 40 472 60.636 472 86C472 111.364 451.364 132 426 132Z" fill="black"/>
</svg>
