<svg width="24" height="24" viewBox="0 0 512 512" fill="none" xmlns="http://www.w3.org/2000/svg">
<path d="M432 0H80C35.888 0 0 35.888 0 80V100C0 111.046 8.954 120 20 120C31.046 120 40 111.046 40 100V80C40 57.944 57.944 40 80 40H432C454.056 40 472 57.944 472 80V432C472 454.056 454.056 472 432 472H80C57.944 472 40 454.056 40 432V412C40 400.954 31.046 392 20 392C8.954 392 0 400.954 0 412V432C0 476.112 35.888 512 80 512H432C476.112 512 512 476.112 512 432V80C512 35.888 476.112 0 432 0Z" fill="black"/>
<path d="M45.9906 270.278C45.9466 270.232 45.9016 270.187 45.8566 270.142C38.0586 262.344 38.0586 249.656 45.8976 241.817L120.182 167.101C127.97 159.268 127.933 146.605 120.1 138.817C112.267 131.03 99.6036 131.066 91.8156 138.899L17.5726 213.574C-5.79639 236.943 -5.82139 274.953 17.4996 298.353L91.7236 374.006C95.6396 377.999 100.818 380 106.001 380C111.055 380 116.114 378.096 120.005 374.277C127.89 366.541 128.011 353.878 120.275 345.994L45.9906 270.278Z" fill="black"/>
<path d="M333 236H120C108.954 236 100 244.954 100 256C100 267.046 108.954 276 120 276H333C344.046 276 353 267.046 353 256C353 244.954 344.046 236 333 236Z" fill="black"/>
</svg>
