<svg width="105" height="40" viewBox="0 0 105 40" fill="none" xmlns="http://www.w3.org/2000/svg">
<path fill-rule="evenodd" clip-rule="evenodd" d="M4.49341 5.39644V8.80709H5.96569C7.98421 8.42831 7.43797 5.53858 5.96569 5.39644H4.49341ZM0.313847 2.00962V17.4524H4.49341V12.4314L8.0559 17.4524H12.9959L8.60299 11.2712C13.6856 8.80794 11.7857 2.08112 6.44194 2.01047H0.313847V2.00962ZM19.6455 9.73061C21.023 9.73061 22.1386 10.7724 22.1386 12.0518C22.1386 13.3302 21.0222 14.3729 19.6455 14.3729C18.2919 14.3729 17.1755 13.3302 17.1755 12.0518C17.1755 10.7724 18.2919 9.73061 19.6455 9.73061ZM18.7664 6.31996C19.9067 6.31996 20.9753 6.69873 21.8535 7.31413V6.72256H25.9383L25.9622 17.4516H21.8296L21.8535 16.7885C20.9753 17.4039 19.9067 17.7597 18.7664 17.7597C15.7263 17.7597 13.2332 15.2019 13.2332 12.0518C13.2332 8.90157 15.7271 6.31996 18.7664 6.31996ZM28.1241 6.72256H32.4701V17.4516H28.1241V6.72256ZM30.3082 0.588164C31.568 0.588164 32.5887 1.63 32.5887 2.88548C32.5887 4.14096 31.568 5.18279 30.3082 5.18279C29.0263 5.18279 28.0046 4.14011 28.0046 2.88548C28.0055 1.63085 29.0263 0.588164 30.3082 0.588164ZM63.2966 6.72256H67.6426V17.4516H63.2966V6.72256ZM65.4577 0.588164C66.7405 0.588164 67.7613 1.63 67.7613 2.88548C67.7613 4.14096 66.7405 5.18279 65.4577 5.18279C64.1988 5.18279 63.178 4.14011 63.178 2.88548C63.178 1.63085 64.1988 0.588164 65.4577 0.588164ZM33.2775 6.72256V10.1332H34.7737V17.4516H38.978V10.1332H42.9203V17.4516H47.2663V10.0864H49.9736V6.77023H47.1468V4.37844C47.076 3.50258 49.1423 3.14679 49.8549 3.85752V0.351538C45.8649 -0.903941 42.6352 1.34656 42.6583 4.82785V6.72256H38.9533V4.37844C38.9055 3.50258 40.7115 3.14679 41.7553 3.85752V0.351538C38.2875 -0.666464 34.5834 1.0146 34.6073 4.80402V6.69873L33.2775 6.72256ZM56.1717 17.7597C59.9006 17.7359 61.2773 16.197 62.0855 13.9465H58.3097C56.5993 16.1255 54.1054 14.5389 54.2248 12.7625H62.205C62.205 8.40448 59.8767 6.34379 56.1725 6.34379C52.4684 6.34379 50.1409 8.94923 50.1409 12.1233C50.1409 15.2973 52.8473 17.7836 56.1717 17.7597ZM54.7702 10.2285C54.818 8.9254 57.6678 8.9254 57.8573 10.2285H54.7702ZM85.7632 17.7597C89.5151 17.7359 90.8935 16.197 91.7001 13.9465H87.9003C86.1908 16.1255 83.6969 14.5389 83.8164 12.7625H91.7965C91.7965 8.40448 89.493 6.34379 85.764 6.34379C82.059 6.34379 79.7324 8.94923 79.7324 12.1233C79.7324 15.2973 82.438 17.7836 85.7632 17.7597ZM84.3617 10.2285C84.4095 8.9254 87.2594 8.9254 87.4488 10.2285H84.3617ZM78.5913 6.93621L77.3085 9.54165C75.6936 9.04371 74.1258 9.13904 74.1736 9.58846C74.2214 9.87275 73.9602 10.3698 76.4772 10.7256C80.2291 11.3172 79.921 18.2806 73.6273 17.7597C71.8939 17.6414 70.4924 17.1911 69.3291 16.5042L70.7306 13.709C72.7021 14.6802 74.6012 15.2488 74.7437 14.2776C74.9101 13.0698 72.6774 13.4962 71.3238 12.4773C68.9015 10.9852 70.2782 6.36677 74.2453 6.31911C75.6459 6.22548 77.0951 6.46211 78.5913 6.93621ZM93.4583 6.72256V17.4516H97.5201V10.8908C97.6387 9.25651 100.868 8.97221 100.892 10.8908V17.4516H105V10.7256C104.905 6.96004 100.939 5.13598 97.3528 7.52777V6.72256H93.4583ZM2.71217 24.0124L0.00488281 39.9285H7.67609C12.8773 39.9285 15.0144 33.4868 11.3094 31.284C14.4682 28.3704 12.8534 23.9894 9.45734 23.9418L2.71217 24.0124ZM5.82316 33.5098L5.27692 36.1391H7.05816C9.07668 36.2336 8.83941 33.5098 7.67609 33.5098H5.82316ZM6.7253 27.8018L6.27466 29.934L6.82089 29.957C8.4596 30.0515 9.40954 27.8018 7.43797 27.8018H6.7253ZM13.0429 39.9523H17.6978L19.0993 37.1571H24.3713L25.1548 40H29.453L25.7249 24.1069H21.3312L13.0429 39.9523ZM20.6193 33.8179H23.517L22.5909 29.6251L20.6193 33.8179ZM30.9261 40H35.2252L36.3168 30.0285L42.468 39.9523H47.0751L48.9989 24.0116H44.7007L43.4896 33.9831L37.3376 23.9639H32.8969L30.9261 40ZM52.0868 23.9648L49.0706 39.9523H53.6069L54.818 33.9831L58.8789 39.9523H64.8398L59.0215 31.5674L66.4554 23.9409H60.6841L55.6015 29.5774L56.4089 23.9409L52.0868 23.9648Z" fill="black"/>
</svg>
