<svg width="36" height="33" viewBox="0 0 36 33" fill="none" xmlns="http://www.w3.org/2000/svg">
<path fill-rule="evenodd" clip-rule="evenodd" d="M1.11113 27.3783L5.95642 32.304L17.3088 20.8174L29.0409 32.5406L33.957 27.6856L22.3427 16.1045L24.5754 13.9493V9.3547L25.9769 8.17072V11.7703L27.782 13.2386L33.1727 7.8626L34.9061 9.18872C35.9277 5.42314 30.0139 -3.12689 25.1216 1.60988L19.4212 7.24635L20.5853 8.64397L17.6877 11.4622L14.8857 8.71462L16.358 7.38764L10.1121 1.37241C5.41019 -2.48851 0.588795 3.38628 0.422363 9.11723L2.13191 7.69662L7.38005 13.3339L9.25603 11.7712V8.31287L10.4193 9.18872V13.7127L12.699 15.9862L1.11113 27.3783Z" fill="black"/>
</svg>
