<svg width="24" height="24" viewBox="0 0 24 24" fill="none" xmlns="http://www.w3.org/2000/svg">
<path d="M23.0625 15.5633C23.5803 15.5633 24 15.1435 24 14.6258V8.43826C24 6.37051 22.3177 4.6883 20.25 4.6883H16.2153V3.46604C16.2153 2.0454 15.0595 0.889648 13.6389 0.889648H10.3611C8.94047 0.889648 7.78472 2.0454 7.78472 3.46604V4.68826H3.75C1.68225 4.68826 0 6.37051 0 8.43826V19.3601C0 21.4279 1.68225 23.1101 3.75 23.1101H20.25C22.3177 23.1101 24 21.4279 24 19.3601C24 18.8424 23.5803 18.4226 23.0625 18.4226C22.5447 18.4226 22.125 18.8424 22.125 19.3601C22.125 20.394 21.2839 21.2351 20.25 21.2351H3.75C2.71613 21.2351 1.875 20.394 1.875 19.3601V12.7021H11.1094V14.1101C11.1094 14.6279 11.5291 15.0476 12.0469 15.0476C12.5647 15.0476 12.9844 14.6279 12.9844 14.1101V12.7021H22.125V14.6258C22.125 15.1435 22.5447 15.5633 23.0625 15.5633ZM9.65972 3.46604C9.65972 3.07927 9.97434 2.76465 10.3611 2.76465H13.6389C14.0257 2.76465 14.3403 3.07927 14.3403 3.46604V4.68826H9.65972V3.46604V3.46604ZM1.875 10.8272V8.4383C1.875 7.40443 2.71613 6.5633 3.75 6.5633H20.25C21.2839 6.5633 22.125 7.40443 22.125 8.4383V10.8272H1.875Z" fill="#192027"/>
</svg>
